<svg id="box" xmlns="http://www.w3.org/2000/svg" width="300" height="114"><g transform="translate(70,6)"><g class="x axis" transform="translate(0, 86)"><g class="tick" style="opacity: 1;" transform="translate(30.625000000000004,0)"><line y2="1" x2="0"/><text dy=".71em" style="text-anchor: middle;" y="4" x="0">12:00</text></g><g class="tick" style="opacity: 1;" transform="translate(83.125,0)"><line y2="1" x2="0"/><text dy=".71em" style="text-anchor: middle;" y="4" x="0">18:00</text></g><g class="tick" style="opacity: 1;" transform="translate(135.625,0)"><line y2="1" x2="0"/><text dy=".71em" style="text-anchor: middle;" y="4" x="0">0:00</text></g><g class="tick" style="opacity: 1;" transform="translate(188.125,0)"><line y2="1" x2="0"/><text dy=".71em" style="text-anchor: middle;" y="4" x="0">6:00</text></g><path class="domain" d="M0,1V0H210V1"/></g><g transform="translate(0, 0)" class="y axis"><g class="tick" style="opacity: 1;" transform="translate(0,80.56294394515206)"><line x2="-1" y2="0"/><text dy=".32em" style="text-anchor: end;" x="-4" y="0">60ms</text></g><g class="tick" style="opacity: 1;" transform="translate(0,45.11376577126346)"><line x2="-1" y2="0"/><text dy=".32em" style="text-anchor: end;" x="-4" y="0">80ms</text></g><g class="tick" style="opacity: 1;" transform="translate(0,9.664587597374851)"><line x2="-1" y2="0"/><text dy=".32em" style="text-anchor: end;" x="-4" y="0">100ms</text></g><path class="domain" d="M-1,0H0V86H-1"/></g><path d="M0,82.92651190849534L0.12152777777777776,83.4387599237461C0.24305555555555552,83.9510079389969,0.48611111111111105,84.97550396949845,0.7291666666666665,84.79555851486417C0.9722222222222221,84.61561306022989,1.2152777777777777,83.2312261204598,1.458333333333333,82.65940439422786C1.7013888888888888,82.08758266799592,1.9444444444444442,82.32832615530212,2.1875,82.5677649273965C2.4305555555555554,82.80720369949086,2.6736111111111107,83.04533775637339,2.9166666666666665,82.09889419855713C3.159722222222222,81.15245064074088,3.4027777777777777,79.02142946822585,3.645833333333333,78.55045608514472C3.8888888888888884,78.07948270206359,4.131944444444445,79.26855710841636,4.375,80.46539550481441C4.618055555555555,81.66223390121246,4.861111111111111,82.8668362876558,5.104166666666667,82.77589589358688C5.347222222222221,82.68495549951795,5.590277777777777,81.29847232493677,5.833333333333333,80.960241955242C6.076388888888888,80.6220115855472,6.319444444444445,81.3320340207388,6.5625,81.7093468704351C6.805555555555555,82.08665972013138,7.048611111111111,82.13126298433235,7.291666666666666,81.64133421490686C7.534722222222221,81.15140544548137,7.777777777777778,80.12694464242944,8.020833333333334,79.6363555598107C8.26388888888889,79.14576647719197,8.506944444444445,79.18904911500644,8.75,79.2710493146662C8.993055555555555,79.35304951432596,9.23611111111111,79.473767275831,9.479166666666666,78.50923907297528C9.722222222222221,77.54471087011959,9.965277777777777,75.49493670290315,10.208333333333332,75.42785359486163C10.45138888888889,75.36077048682012,10.694444444444443,77.27637843795351,10.9375,78.74427388934144C11.180555555555554,80.21216934072937,11.42361111111111,81.23235229237184,11.666666666666664,81.72362604891963C11.909722222222221,82.2148998054674,12.152777777777775,82.17726436692047,12.395833333333332,82.04242418169744C12.638888888888888,81.9075839964744,12.881944444444443,81.67553906457526,13.125,82.09149026771657C13.368055555555555,82.50744147085787,13.61111111111111,83.57138880903962,13.854166666666666,83.34809305557886C14.097222222222221,83.12479730211808,14.340277777777777,81.61425845701478,14.583333333333334,81.50427958411919C14.82638888888889,81.3943007112236,15.069444444444445,82.6848818105357,15.3125,82.78510480857832C15.555555555555557,82.88532780662092,15.79861111111111,81.79519270339404,16.041666666666668,81.8006058170745C16.28472222222222,81.80601893075495,16.527777777777775,82.90698026134274,16.770833333333332,83.27357980204444C17.013888888888886,83.64017934274614,17.256944444444443,83.27241709356176,17.499999999999996,83.46604971364076C17.743055555555554,83.65968233371976,17.986111111111107,84.41470982306214,18.229166666666664,84.65486115922313C18.472222222222218,84.89501249538411,18.715277777777775,84.6202876783637,18.958333333333332,83.99521541246102C19.201388888888886,83.37014314655836,19.444444444444443,82.39472343177346,19.6875,82.23234126075239C19.930555555555557,82.06995908973133,20.17361111111111,82.72061446247412,20.416666666666668,82.62405119583327C20.65972222222222,82.52748792919243,20.90277777777778,81.68370602316799,21.145833333333332,81.55634189534142C21.38888888888889,81.42897776751485,21.631944444444443,82.01803141788616,21.875,82.4540896285858C22.118055555555554,82.89014783928546,22.36111111111111,83.17321061031343,22.604166666666668,83.68019108994605C22.84722222222222,84.18717156957867,23.090277777777775,84.91806975781591,23.33333333333333,84.84015682060812C23.576388888888886,84.7622438834003,23.819444444444443,83.87551982074743,24.062499999999996,83.45031605322299C24.30555555555555,83.02511228569857,24.548611111111107,83.06142881330257,24.791666666666664,83.20116461625781C25.034722222222218,83.34090041921306,25.27777777777777,83.58405549751953,25.52083333333333,83.28397798689846C25.763888888888886,82.98390047627738,26.006944444444443,82.14059037672877,26.25,82.10830732730622C26.493055555555554,82.07602427788369,26.736111111111107,82.85476827858724,26.979166666666664,83.2208658574664C27.222222222222218,83.58696343634554,27.465277777777775,83.5404145934003,27.708333333333332,83.61041568522191C27.951388888888886,83.68041677704353,28.19444444444444,83.86696780363204,28.437499999999996,82.96153594735884C28.68055555555555,82.05610409108567,28.923611111111107,80.05868935195079,29.166666666666664,79.7130637110343C29.40972222222222,79.3674380701178,29.652777777777775,80.67360152741966,29.895833333333332,81.3594981608424C30.138888888888886,82.04539479426516,30.381944444444443,82.1110246038088,30.625,81.4955493956291C30.868055555555557,80.8800741874494,31.111111111111107,79.58349396154637,31.354166666666664,79.58772994049728C31.59722222222222,79.5919659194482,31.84027777777778,80.89701810325306,32.08333333333333,81.47062427781356C32.326388888888886,82.04423045237405,32.56944444444444,81.88639061769018,32.8125,81.75236273162143C33.05555555555556,81.61833484555268,33.29861111111111,81.50811890809904,33.541666666666664,80.87360233637531C33.784722222222214,80.23908576465159,34.02777777777777,79.08026855865779,34.270833333333336,78.91701604054C34.513888888888886,78.75376352242222,34.75694444444444,79.58607569218044,35,78.08272063569383C35.24305555555556,76.57936557920722,35.486111111111114,72.74034329647577,35.729166666666664,72.33955160813527C35.97222222222222,71.93875991979476,36.21527777777777,74.97619882584522,36.45833333333333,76.93924410635336C36.701388888888886,78.9022893868615,36.94444444444444,79.79094104182732,37.18749999999999,80.54418206944716C37.43055555555555,81.29742309706697,37.67361111111111,81.91525349734077,37.916666666666664,81.92306310385679C38.15972222222222,81.9308727103728,38.40277777777778,81.32866152313103,38.645833333333336,80.91630668999483C38.888888888888886,80.5039518568586,39.13194444444444,80.28145337782794,39.375,80.31323280345754C39.61805555555556,80.34501222908712,39.86111111111111,80.63106955937694,40.104166666666664,80.3416697480058C40.347222222222214,80.05226993663464,40.59027777777777,79.18741298360253,40.833333333333336,78.62881935294152C41.076388888888886,78.0702257222805,41.31944444444444,77.8178954139906,41.5625,77.0252655323354C41.80555555555556,76.23263565068018,42.048611111111114,74.89970619565968,42.291666666666664,74.76389881079963C42.53472222222222,74.62809142593959,42.77777777777777,75.68940611124,43.02083333333333,76.29698599513573C43.263888888888886,76.90456587903145,43.50694444444444,77.05841096152247,43.74999999999999,77.11865354222341C43.99305555555555,77.17889612292433,44.23611111111111,77.14553620183516,44.479166666666664,76.99964113732115C44.72222222222222,76.85374607280714,44.96527777777778,76.5953158648683,45.208333333333336,76.482322612092C45.451388888888886,76.36932935931571,45.69444444444444,76.40177306170197,45.9375,76.53442553941406C46.18055555555556,76.66707801712614,46.42361111111111,76.89993927016405,46.666666666666664,76.77717393344892C46.909722222222214,76.65440859673379,47.15277777777777,76.17601667026561,47.39583333333333,76.16246068047082C47.638888888888886,76.148904690676,47.88194444444444,76.60018463755458,48.125,76.90504466681405C48.36805555555555,77.20990469607354,48.61111111111111,77.36834480771392,48.85416666666666,77.13842525244438C49.097222222222214,76.90850569717485,49.34027777777777,76.29022647499538,49.58333333333332,76.34148287992554C49.826388888888886,76.3927392848557,50.06944444444444,77.11353131689548,50.31249999999999,77.5504587497588C50.55555555555555,77.98738618262212,50.7986111111111,78.14044901630898,51.04166666666666,78.35080948648444C51.284722222222214,78.56116995665988,51.52777777777777,78.82882806332393,51.77083333333333,77.68991844315303C52.013888888888886,76.55100882298214,52.25694444444444,74.00553147597631,52.5,73.18102549558584C52.74305555555556,72.35651951519537,52.98611111111111,73.25298490142026,53.22916666666666,73.77113812431287C53.472222222222214,74.28929134720548,53.71527777777777,74.4291324067658,53.95833333333333,74.42735705420246C54.201388888888886,74.42558170163912,54.44444444444444,74.28218993695208,54.6875,72.54715741114794C54.93055555555556,70.81212488534379,55.173611111111114,67.48545159842251,55.416666666666664,67.04384458196293C55.659722222222214,66.60223756550337,55.90277777777777,69.04569681950551,56.14583333333332,70.53163506785378C56.38888888888888,72.01757331620206,56.63194444444443,72.54599055889648,56.874999999999986,72.68993383103164C57.11805555555554,72.8338771031668,57.36111111111111,72.59334640474273,57.604166666666664,72.48654626710697C57.84722222222222,72.37974612947123,58.09027777777777,72.40667655262382,58.33333333333333,72.22251096258837C58.576388888888886,72.03834537255293,58.81944444444444,71.64308376932946,59.0625,71.07858646242067C59.30555555555556,70.51408915551187,59.54861111111111,69.78035614491776,59.79166666666666,70.03102702119384C60.034722222222214,70.28169789746991,60.27777777777777,71.5167726606162,60.52083333333333,72.31443439571034C60.763888888888886,73.11209613080447,61.00694444444444,73.47234483784648,61.25,73.30346070808876C61.49305555555556,73.13457657833104,61.736111111111114,72.4365596117736,61.979166666666664,71.3965305181862C62.222222222222214,70.35650142459879,62.46527777777777,68.97446020398142,62.70833333333332,68.65774932856058C62.95138888888888,68.34103845313973,63.19444444444443,69.08965792291542,63.437499999999986,68.99992668743917C63.68055555555554,68.91019545196292,63.92361111111111,67.98211351123473,64.16666666666667,67.39337620832363C64.40972222222223,66.80463890541253,64.65277777777779,66.55524624031851,64.89583333333334,66.57550003592603C65.13888888888889,66.59575383153354,65.38194444444444,66.8856540878426,65.625,67.32053976123746C65.86805555555554,67.75542543463231,66.1111111111111,68.335296525113,66.35416666666666,68.08488099952844C66.5972222222222,67.83446547394388,66.84027777777777,66.7537633322941,67.08333333333331,66.62513515955621C67.32638888888889,66.4965069868183,67.56944444444443,67.31995278299232,67.8125,67.129405322766C68.05555555555554,66.93885786253972,68.29861111111111,65.73431714591311,68.54166666666666,64.57095766679447C68.78472222222221,63.40759818767582,69.02777777777777,62.285419946065126,69.27083333333333,61.63741416397736C69.51388888888889,60.989408381889604,69.75694444444444,60.81557505932478,70,61.393905006994814C70.24305555555556,61.972234954664856,70.48611111111111,63.302728172569765,70.72916666666667,64.15135772255762C70.97222222222223,64.99998727254547,71.21527777777779,65.36675315461628,71.45833333333334,64.6598697623364C71.70138888888889,63.95298637005652,71.94444444444444,62.17245370342596,72.1875,61.38182891162306C72.43055555555554,60.59120411982016,72.6736111111111,60.79048720284492,72.91666666666666,60.634947104286496C73.1597222222222,60.47940700572808,73.40277777777777,59.96904372558646,73.64583333333331,60.06275462776255C73.88888888888889,60.15646552993864,74.13194444444443,60.85425061443243,74.375,60.82632246833815C74.61805555555554,60.79839432224388,74.86111111111111,60.04475294556154,75.10416666666666,60.08078949136368C75.34722222222221,60.11682603716582,75.59027777777777,60.94254050545244,75.83333333333333,60.683714436254874C76.07638888888889,60.4248883670573,76.31944444444444,59.08152176037554,76.5625,58.1608270261498C76.80555555555556,57.24013229192407,77.04861111111111,56.74210943015436,77.29166666666667,56.56442170429179C77.53472222222223,56.38673397842922,77.77777777777779,56.52938138847379,78.02083333333334,56.83130562468938C78.26388888888889,57.133229860904976,78.50694444444444,57.5944309232916,78.75,57.867501645528066C78.99305555555554,58.140572367764534,79.2361111111111,58.225512749850864,79.47916666666666,58.28199207460441C79.7222222222222,58.33847139935794,79.96527777777777,58.366489666778705,80.20833333333331,58.37773138455995C80.45138888888889,58.388973102341204,80.69444444444443,58.383438270482955,80.9375,57.991258281536425C81.18055555555554,57.599078292589894,81.42361111111111,56.82025314655509,81.66666666666666,56.46346979413354C81.90972222222221,56.106686441711986,82.15277777777777,56.17194488290369,82.39583333333333,56.01276353905097C82.63888888888889,55.85358219519826,82.88194444444444,55.46996106630113,83.125,55.60233266055636C83.36805555555556,55.734704254811575,83.61111111111111,56.38306857221916,83.85416666666667,57.02116886990768C84.09722222222223,57.659269167596214,84.34027777777779,58.2871054455657,84.58333333333334,57.9625767875869C84.82638888888889,57.638048129608094,85.06944444444444,56.361154535681,85.3125,56.592352493040266C85.55555555555554,56.82355045039952,85.7986111111111,58.562839959045135,86.04166666666666,59.18902664805242C86.2847222222222,59.8152133370597,86.52777777777777,59.328297206428644,86.77083333333331,58.703190828391726C87.01388888888889,58.0780844503548,87.25694444444443,57.314787824912,87.5,57.236533084320314C87.74305555555554,57.158278343728625,87.98611111111111,57.76506548798804,88.22916666666666,57.48877025886806C88.47222222222221,57.21247502974807,88.71527777777777,56.05309742724869,88.95833333333333,55.75626096928586C89.20138888888889,55.459424511323036,89.44444444444444,56.02512919789677,89.6875,56.18225797650345C89.93055555555556,56.33938675511012,90.17361111111111,56.08793962574974,90.41666666666667,56.31276212007168C90.65972222222223,56.537584614393616,90.90277777777779,57.23867673239787,91.14583333333334,57.66415787879254C91.38888888888889,58.0896390251872,91.63194444444444,58.23950919997228,91.875,58.69823489136742C92.11805555555554,59.15696058276255,92.3611111111111,59.92454179076774,92.60416666666666,60.43185435850506C92.8472222222222,60.9391669262424,93.09027777777777,61.18621085371187,93.33333333333331,61.32099084098718C93.57638888888889,61.45577082826249,93.81944444444443,61.478286875343635,94.0625,61.57552416833642C94.30555555555554,61.672761461329216,94.54861111111111,61.84472000023364,94.79166666666666,62.45495186289567C95.03472222222221,63.0651837255577,95.27777777777777,64.11368891197732,95.52083333333331,64.26471872798456C95.76388888888889,64.4157485439918,96.00694444444443,63.66930298958664,96.24999999999999,62.76160011970599C96.49305555555554,61.85389724982534,96.7361111111111,60.784937064469204,96.97916666666666,60.50148655203827C97.22222222222221,60.21803603960734,97.46527777777777,60.720095200101625,97.70833333333333,60.51666711894207C97.95138888888889,60.31323903778251,98.19444444444444,59.404323714969124,98.4375,59.65619809984818C98.68055555555554,59.90807248472724,98.9236111111111,61.320736577298746,99.16666666666666,61.79659406752122C99.4097222222222,62.27245155774371,99.65277777777777,61.811502445617165,99.89583333333331,61.73960147460464C100.13888888888889,61.66770050359213,100.38194444444443,61.984847673693636,100.625,62.10646016300929C100.86805555555554,62.22807265232493,101.11111111111111,62.154150460854716,101.35416666666666,62.30662385254365C101.59722222222221,62.45909724423259,101.84027777777777,62.83796621908068,102.08333333333331,62.51784767438853C102.32638888888887,62.19772912969637,102.56944444444443,61.17862306546398,102.81249999999999,59.99834086944321C103.05555555555554,58.81805867342244,103.2986111111111,57.47660034561329,103.54166666666666,57.44028195091946C103.78472222222221,57.403963556225634,104.02777777777777,58.67278509464711,104.27083333333333,59.12747372853644C104.51388888888889,59.58216236242575,104.75694444444444,59.22271809178291,105,59.62610913137479C105.24305555555554,60.02950017096667,105.4861111111111,61.19572652079327,105.72916666666666,61.05594957017905C105.9722222222222,60.91617261956483,106.21527777777777,59.4703923685098,106.45833333333331,58.90017185995871C106.70138888888887,58.329951351407615,106.94444444444443,58.63529058536046,107.18749999999997,58.32785763211167C107.43055555555553,58.020424678862895,107.67361111111109,57.100219538412475,107.91666666666664,56.57486423758952C108.1597222222222,56.04950893676656,108.40277777777777,55.919003475571046,108.64583333333333,55.528822761463466C108.88888888888889,55.13864204735589,109.13194444444446,54.48878608033624,109.375,52.23908123492464C109.61805555555556,49.98937638951305,109.86111111111111,46.13982266570951,110.10416666666666,45.591297611322C110.34722222222221,45.04277255693448,110.59027777777777,47.795276171962996,110.83333333333333,49.46412382379778C111.07638888888889,51.132971475632566,111.31944444444444,51.71816316427362,111.5625,51.98295320052039C111.80555555555554,52.247743236767164,112.0486111111111,52.192131620619655,112.29166666666666,51.86427933420936C112.5347222222222,51.53642704779906,112.77777777777777,50.93633409112597,113.02083333333331,50.04559114726477C113.26388888888887,49.15484820340357,113.50694444444443,47.97345527235425,113.74999999999997,46.89336095009742C113.99305555555553,45.81326662784058,114.23611111111109,44.834470914376226,114.47916666666664,42.40113180601712C114.7222222222222,39.96779269765802,114.96527777777777,36.07991019440417,115.20833333333333,35.46936141520139C115.45138888888889,34.85881263599862,115.69444444444446,37.52559758084691,115.9375,38.69226041238188C116.18055555555556,39.858923243916834,116.42361111111111,39.52546396213846,116.66666666666666,39.0884715736028C116.90972222222221,38.65147918506713,117.15277777777777,38.11095368977418,117.39583333333333,37.04626881885771C117.63888888888889,35.98158394794126,117.88194444444444,34.39273970140129,118.125,31.29603969874592C118.36805555555554,28.199339696090547,118.6111111111111,23.594783937319768,118.85416666666666,23.562240249249005C119.0972222222222,23.52969656117824,119.34027777777777,28.069164943807497,119.58333333333331,30.507718594421082C119.82638888888887,32.94627224503467,120.06944444444443,33.28391116363259,120.31249999999997,33.42723367462139C120.55555555555553,33.5705561856102,120.79861111111109,33.51956228898989,121.04166666666664,33.132994921416284C121.2847222222222,32.74642755384268,121.52777777777777,32.024286715315775,121.77083333333333,32.44760356593132C122.01388888888889,32.87092041654685,122.25694444444446,34.43969495630484,122.5,33.04059853948729C122.74305555555556,31.641502122669735,122.98611111111111,27.274534749276643,123.22916666666666,26.963572157637294C123.47222222222221,26.652609565997953,123.71527777777777,30.397651756112353,123.95833333333333,32.21837697070899C124.20138888888889,34.03910218530562,124.44444444444444,33.93551042438449,124.6875,33.64788237478773C124.93055555555554,33.360254325190965,125.1736111111111,32.888589986918575,125.41666666666666,33.42046943454493C125.6597222222222,33.95234888217128,125.90277777777777,35.487772115696366,126.14583333333331,36.40657742996002C126.38888888888887,37.325382744223674,126.63194444444443,37.627570139225895,126.87499999999997,32.0394982725886C127.11805555555553,26.45142640595131,127.36111111111109,14.9730952776745,127.60416666666664,13.817807890368325C127.8472222222222,12.662520503062147,128.09027777777777,21.830276856726606,128.33333333333331,24.748996632239894C128.57638888888889,27.667716407753176,128.81944444444443,24.337399605115287,129.0625,20.39076295920647C129.30555555555554,16.444126313297648,129.54861111111111,11.881169824117897,129.79166666666669,13.053066737745747C130.03472222222223,14.224963651373598,130.27777777777777,21.13171396780905,130.52083333333331,24.922759728869348C130.76388888888889,28.713805489929648,131.00694444444446,29.389146695614798,131.25,24.71606931490738C131.49305555555554,20.042991934199964,131.7361111111111,10.021495967099982,131.97916666666666,10.161105893169388C132.2222222222222,10.300715819238796,132.46527777777774,20.601431638477592,132.70833333333331,25.336330139039966C132.95138888888886,30.07122863960234,133.19444444444443,29.24030982148829,133.4375,27.38480846231529C133.68055555555554,25.529307103142294,133.9236111111111,22.649223202910346,134.16666666666666,20.2856400417732C134.4097222222222,17.92205688063605,134.65277777777777,16.0749744585937,134.89583333333331,17.97446752741822C135.13888888888889,19.87396059624274,135.38194444444443,25.52002915593412,135.625,29.078759355895794C135.86805555555554,32.637489555857464,136.11111111111111,34.108881396089416,136.35416666666669,35.38890733086723C136.59722222222223,36.66893326564503,136.84027777777777,37.757593294968686,137.08333333333331,35.74669741056881C137.32638888888889,33.73580152616893,137.56944444444446,28.625349728045514,137.8125,28.432169304062395C138.05555555555554,28.238988880079273,138.2986111111111,32.963079830236445,138.54166666666666,35.572414936556996C138.7847222222222,38.181750042877546,139.02777777777774,38.67632930536148,139.27083333333331,38.718940829414265C139.51388888888886,38.76155235346705,139.75694444444443,38.35219613908869,140,38.774184704581465C140.24305555555554,39.19617327007424,140.4861111111111,40.44950661543817,140.72916666666666,38.38331200731258C140.9722222222222,36.31711739918701,141.21527777777777,30.931394837571933,141.45833333333331,29.951815113384956C141.70138888888889,28.972235389197976,141.94444444444443,32.3987985024391,142.1875,34.38938603252096C142.43055555555554,36.379973562602814,142.67361111111111,36.934585509525405,142.91666666666669,37.60072630438154C143.15972222222223,38.26686709923767,143.40277777777777,39.04453674202734,143.64583333333331,37.28545461900072C143.88888888888889,35.52637249597409,144.13194444444446,31.230538607131166,144.375,30.63481077698157C144.61805555555554,30.039082946831975,144.8611111111111,33.14346117537571,145.10416666666666,35.296431169266896C145.3472222222222,37.44940116315807,145.59027777777774,38.650962922396694,145.83333333333331,39.22575005624504C146.07638888888886,39.80053719009338,146.31944444444443,39.74854969855144,146.5625,39.94347528796066C146.80555555555554,40.13840087736986,147.0486111111111,40.580239547730216,147.29166666666666,38.04271559845701C147.5347222222222,35.5051916491838,147.77777777777777,29.988305080277023,148.02083333333331,29.266144398269425C148.26388888888889,28.543983716261835,148.50694444444443,32.616548921153424,148.75,34.60370186404812C148.99305555555554,36.590854806942815,149.23611111111111,36.49259548784063,149.47916666666669,34.491671175944944C149.72222222222223,32.49074686404926,149.96527777777777,28.587157559360076,150.20833333333331,28.981585958360963C150.45138888888889,29.376014357361846,150.69444444444446,34.068460460052805,150.9375,36.937529330167486C151.18055555555554,39.806598200282174,151.4236111111111,40.85228983782059,151.66666666666666,41.51924412115264C151.9097222222222,42.18619840448469,152.15277777777774,42.474415333610374,152.39583333333331,40.190288827312536C152.63888888888886,37.906162321014705,152.88194444444443,33.04969237929335,153.125,32.761246925272324C153.36805555555554,32.4728014712513,153.6111111111111,36.75238050493063,153.85416666666666,37.94096773582202C154.0972222222222,39.129554966713414,154.34027777777777,37.22715039481689,154.58333333333331,35.340711798172066C154.82638888888889,33.454273201527236,155.06944444444443,31.58380058013411,155.3125,32.40870147867515C155.55555555555554,33.23360237721619,155.79861111111111,36.7538767956914,156.04166666666669,38.81877449256626C156.28472222222223,40.88367218944113,156.52777777777777,41.49319316471565,156.77083333333334,41.50546435987538C157.01388888888889,41.51773555503512,157.25694444444446,40.93275697008006,157.5,40.96785216348968C157.74305555555554,41.0029473568993,157.9861111111111,41.6581163286736,158.22916666666663,38.594346498322665C158.4722222222222,35.530576667971744,158.71527777777774,28.74786803549558,158.95833333333331,27.997810191898694C159.20138888888886,27.247752348301805,159.44444444444443,32.53034529358419,159.6875,35.272943133308004C159.93055555555554,38.01554097303182,160.1736111111111,38.21814370719706,160.41666666666666,38.75278511973667C160.6597222222222,39.287426532276285,160.90277777777777,40.15410662319028,161.14583333333331,40.63183966513036C161.38888888888889,41.10957270707044,161.63194444444443,41.1983587000366,161.875,41.9410610046697C162.11805555555554,42.68376330930279,162.36111111111111,44.08038192560282,162.60416666666669,43.37173309339942C162.84722222222223,42.66308426119601,163.09027777777777,39.84916798048917,163.33333333333334,40.27982061242406C163.57638888888889,40.710473244358944,163.81944444444446,44.38569478893555,164.0625,45.05881888870059C164.30555555555554,45.73194298846563,164.5486111111111,43.40296964341911,164.79166666666663,42.690278164034254C165.0347222222222,41.977586684649395,165.27777777777774,42.88117707092621,165.52083333333331,41.03771980397879C165.76388888888886,39.19426253703136,166.00694444444443,34.603757616859696,166.25,34.81897173595123C166.49305555555554,35.03418585504277,166.7361111111111,40.055119013397515,166.97916666666666,43.60633092721517C167.2222222222222,47.15754284103282,167.46527777777777,49.23903351031338,167.70833333333331,49.86872630829377C167.95138888888889,50.49841910627416,168.19444444444443,49.676314032954394,168.4375,49.16107754720923C168.68055555555554,48.64584106146407,168.92361111111111,48.43747316329351,169.16666666666669,47.575332969059886C169.40972222222223,46.71319277482627,169.65277777777777,45.19728028452958,169.89583333333334,44.60264770174825C170.13888888888889,44.008015118966924,170.38194444444446,44.334662443700964,170.625,44.32989544638734C170.86805555555554,44.32512844907372,171.1111111111111,43.98894712971245,171.35416666666663,44.55839833609873C171.5972222222222,45.12784954248501,171.84027777777774,46.60293327461884,172.08333333333331,47.20304468132004C172.32638888888886,47.80315608802123,172.56944444444443,47.52829516928979,172.8125,47.61725878097336C173.05555555555554,47.70622239265694,173.2986111111111,48.159010534755524,173.54166666666666,47.32931033784909C173.7847222222222,46.49961014094264,174.02777777777777,44.38742160503118,174.27083333333331,40.904451525259C174.51388888888889,37.421481445486826,174.75694444444443,32.567729821853945,175,32.32696255688567C175.24305555555554,32.08619529191739,175.48611111111111,36.45841238561371,175.72916666666669,38.47932801143105C175.97222222222223,40.50024363724839,176.21527777777777,40.16985779518676,176.45833333333334,39.82158194318664C176.70138888888889,39.47330609118652,176.94444444444446,39.10714022924793,177.1875,38.91784093036006C177.43055555555554,38.72854163147219,177.6736111111111,38.71610889563504,177.91666666666663,38.89048273815001C178.1597222222222,39.06485658066498,178.40277777777774,39.42603700153207,178.64583333333331,39.22178316312292C178.88888888888886,39.01752932471376,179.13194444444443,38.24784122702836,179.375,38.979919141032866C179.61805555555554,39.711997055037365,179.8611111111111,41.94584098073178,180.10416666666666,43.08062111666685C180.3472222222222,44.21540125260192,180.59027777777777,44.25111759877764,180.83333333333331,43.88820188804608C181.07638888888889,43.525286177314534,181.31944444444443,42.76373840967571,181.5625,41.69264310416518C181.80555555555554,40.62154779865465,182.04861111111111,39.24090495527242,182.29166666666669,39.186887880116075C182.53472222222223,39.13287080495972,182.77777777777777,40.40547949802926,183.02083333333334,41.95213044580896C183.26388888888889,43.49878139358866,183.50694444444446,45.31947459607852,183.75,47.098989974798044C183.99305555555554,48.87850535351757,184.2361111111111,50.61684290846675,184.47916666666663,50.70302332013138C184.7222222222222,50.789203731796015,184.96527777777774,49.2232270001761,185.20833333333331,48.59529176743611C185.45138888888886,47.96735653469612,185.69444444444443,48.277462800836055,185.9375,48.0230237579371C186.18055555555554,47.76858471503816,186.4236111111111,46.94960036310033,186.66666666666666,44.344099459049545C186.9097222222222,41.73859855499877,187.15277777777777,37.346581098835024,187.39583333333331,37.327632606078026C187.63888888888889,37.30868411332103,187.88194444444443,41.66280458397077,188.125,44.43684492644943C188.36805555555554,47.210885268928095,188.61111111111111,48.40484548323567,188.85416666666669,49.229802958108216C189.09722222222223,50.05476043298077,189.34027777777777,50.51071516841829,189.58333333333334,46.96475787623382C189.82638888888889,43.418800584049336,190.06944444444446,35.870931264242856,190.3125,35.70519088133526C190.55555555555554,35.53945049842767,190.7986111111111,42.755839052418956,191.04166666666663,47.26497744578792C191.2847222222222,51.774115839156885,191.52777777777774,53.576004071903526,191.77083333333331,54.49701564146362C192.01388888888886,55.41802721102371,192.2569444444444,55.458162117397265,192.49999999999997,55.9177336638529C192.74305555555554,56.377305210308535,192.9861111111111,57.25631339684625,193.22916666666666,57.1334764253008C193.4722222222222,57.010639453755346,193.71527777777777,55.88595732412672,193.95833333333331,55.60344147161236C194.20138888888886,55.320925619098,194.44444444444443,55.8805760436979,194.6875,56.024248242279064C194.93055555555554,56.16792044086023,195.1736111111111,55.89561441342265,195.41666666666666,55.60380135706863C195.65972222222223,55.311988300714624,195.90277777777777,55.00066821544418,196.14583333333331,55.55250091990243C196.38888888888889,56.10433362436067,196.63194444444446,57.51931911854761,196.875,59.318935354693984C197.11805555555554,61.118551590840354,197.3611111111111,63.30279856894617,197.60416666666663,63.15127896966476C197.84722222222217,62.999759370383345,198.09027777777774,60.5124731937147,198.33333333333331,59.77357676488325C198.57638888888886,59.03468033605181,198.8194444444444,60.04417365505755,199.06249999999997,60.86577849374958C199.30555555555554,61.68738333244162,199.5486111111111,62.32109969081995,199.79166666666666,62.964407054548985C200.0347222222222,63.60771441827802,200.27777777777777,64.26061278735777,200.52083333333331,64.32922005630714C200.76388888888886,64.3978273252565,201.00694444444443,63.88214349407547,201.25,64.16216019559087C201.49305555555554,64.44217689710626,201.7361111111111,65.5178941313181,201.97916666666666,63.59063727730853C202.22222222222223,61.66338042329896,202.46527777777777,56.733149481068,202.70833333333331,53.502850167625034C202.95138888888889,50.27255085418207,203.19444444444446,48.7421831695271,203.4375,50.55655527410475C203.68055555555554,52.3709273786824,203.9236111111111,57.53003927249267,204.16666666666663,60.59458796042124C204.40972222222217,63.65913664834981,204.65277777777774,64.62912213039668,204.89583333333331,65.12187471330537C205.13888888888886,65.61462729621407,205.3819444444444,65.63014697998459,205.62499999999997,65.38474108027518C205.86805555555554,65.13933518056578,206.1111111111111,64.63300369737644,206.35416666666666,64.12825696882433C206.5972222222222,63.623510240272225,206.84027777777777,63.12034826635735,207.08333333333331,63.82626590195352C207.32638888888886,64.5321835375497,207.56944444444443,66.44718078265693,207.8125,67.05810266272003C208.05555555555554,67.66902454278312,208.2986111111111,66.97587105780208,208.54166666666666,66.17003011931658C208.78472222222223,65.36418918083106,209.02777777777777,64.44566078884108,209.27083333333331,62.677943758208954C209.51388888888889,60.91022672757683,209.75694444444446,58.29332105830254,209.87847222222223,56.984868223665394L210,55.67641538902826" stroke-width="2" fill="none"/></g></svg>